<?xml version="1.0" ?>
<!-- Uploaded to: SVG Repo, www.svgrepo.com, Generator: SVG Repo Mixer Tools -->
<svg width="800px" height="800px" viewBox="0 0 64 64" xmlns="http://www.w3.org/2000/svg">
<g id="a"/>
<g id="b"/>
<g id="c"/>
<g id="d"/>
<g id="e"/>
<g id="f"/>
<g id="g"/>
<g id="h"/>
<g id="i"/>
<g id="j"/>
<g id="k"/>
<g id="l"/>
<g id="m">
<path d="M34.2,46.75l24.8-1.34v-2.79c0-3.92-3.16-7.07-7.07-7.07h-5.41l-1.07-4.9c-.74-3.39-2.8-6.27-6.27-6.27h-3.92l-2.85,12.93,1.79,9.45Z" fill="#8fd7f8" fill-rule="evenodd"/>
<path d="M17.05,24.38c-2.81,0-4.43,2.34-5.08,5.07l-1.56,6.09c-3.05,0-5.42,2.37-5.42,5.31v4.56l22.66,1.34,1.85-8.6-3.08-13.78h-9.38Z" fill="#8fd7f8" fill-rule="evenodd"/>
<path d="M15.04,35.54l1.27-5.87c.27-1.26,1.39-2.16,2.67-2.16h19.14c1.29,0,2.4,.9,2.67,2.16l1.27,5.87H15.04Z" fill="#f0f3f5" fill-rule="evenodd"/>
<path d="M38.44,10.09c-5.03-.16-7.6,6.01-7.6,14.29l.31,1.39,4.11-1.39c8.83,0,13.58-10.93,5.49-13.82-.82-.29-1.59-.45-2.31-.47Z" fill="#f2d865" fill-rule="evenodd"/>
<path d="M23.25,10.09c-.72,.02-1.49,.17-2.31,.47-8.09,2.89-3.35,13.82,5.49,13.82l3.49,1.1,.92-1.1c0-8.27-2.57-14.44-7.6-14.29Z" fill="#f2d865" fill-rule="evenodd"/>
<path d="M23.25,10.09c-.38,.01-.76,.06-1.17,.14,4.07,.97,6.15,6.7,6.15,14.14h2.62c0-8.27-2.57-14.44-7.6-14.29Z" fill="#e9c03d" fill-rule="evenodd"/>
<path d="M38.44,10.09c-.51-.02-.99,.04-1.45,.15,.37,.08,.74,.18,1.13,.32,8.09,2.89,3.35,13.82-5.49,13.82h2.62c8.83,0,13.58-10.93,5.49-13.82-.82-.29-1.59-.45-2.31-.47Z" fill="#e9c03d" fill-rule="evenodd"/>
<path d="M49.35,35.54c3.92,0,7.07,3.16,7.07,7.07v5.59c0,1.13-.91,2.04-2.04,2.04h2.58c1.13,0,2.04-.91,2.04-2.04v-5.59c0-3.92-3.16-7.07-7.07-7.07h-2.58Zm-12.75-11.16c3.47,0,5.53,2.87,6.27,6.27l1.07,4.9h2.58l-1.07-4.9c-.74-3.39-2.8-6.27-6.27-6.27h-2.58Z" fill="#75cdf8" fill-rule="evenodd"/>
<path d="M34.2,45.41l1.07,4.83h21.7c1.13,0,2.04-.91,2.04-2.04v-2.79h-24.8Z" fill="#d9f0f3" fill-rule="evenodd"/>
<path d="M27.66,45.41H5v2.79c0,1.13,.91,2.04,2.04,2.04H26.43l1.23-4.83Z" fill="#d9f0f3" fill-rule="evenodd"/>
<rect fill="#f5e680" height="25.86" width="8.84" x="26.43" y="24.37"/>
<rect fill="#f2d865" height="25.86" width="2.15" x="33.12" y="24.37"/>
<path d="M47.18,41.82c-3.34,0-6.05,2.71-6.05,6.05,0,3.34,2.71,6.05,6.05,6.05,3.34,0,6.05-2.71,6.05-6.05,0-3.34-2.71-6.04-6.05-6.05Z" fill="#7a8594" fill-rule="evenodd"/>
<path d="M16.82,41.82c-3.34,0-6.05,2.71-6.05,6.05,0,3.34,2.71,6.05,6.05,6.05,3.34,0,6.05-2.71,6.05-6.05,0-3.34-2.71-6.05-6.05-6.05Z" fill="#7a8594" fill-rule="evenodd"/>
<path d="M47.18,45.41c-1.36,0-2.46,1.1-2.46,2.46s1.1,2.46,2.46,2.46c1.36,0,2.46-1.1,2.46-2.46s-1.1-2.46-2.46-2.46Z" fill="#f0f3f5" fill-rule="evenodd"/>
<path d="M16.82,45.41c-1.36,0-2.46,1.1-2.46,2.46s1.1,2.46,2.46,2.46c1.36,0,2.46-1.1,2.46-2.46s-1.1-2.46-2.46-2.46Z" fill="#f0f3f5" fill-rule="evenodd"/>
<path d="M56.42,45.41v2.79c0,1.13-.91,2.04-2.04,2.04h2.58c1.13,0,2.04-.91,2.04-2.04v-2.79h-2.58Z" fill="#b8e3ee" fill-rule="evenodd"/>
<path d="M30.85,37.88c-.27,0-.52,.1-.71,.29s-.29,.44-.29,.71,.1,.52,.29,.71c.19,.19,.44,.29,.71,.29s.52-.11,.71-.29c.19-.19,.29-.44,.29-.71s-.11-.52-.29-.71c-.19-.19-.44-.29-.71-.29Z"/>
<path d="M30.85,27.05c-.27,0-.52,.11-.71,.29-.19,.19-.29,.44-.29,.71s.1,.52,.29,.71c.19,.19,.44,.29,.71,.29s.52-.11,.71-.29c.19-.19,.29-.44,.29-.71s-.11-.52-.29-.71c-.19-.19-.44-.29-.71-.29Z"/>
<path d="M51.93,34.54h-4.61l-.89-4.11c-.78-3.57-2.71-5.94-5.3-6.74,2.54-1.59,4.24-4.08,4.67-6.53,.59-3.41-1.21-6.3-4.71-7.55-2.42-.87-4.66-.65-6.47,.62-1.7,1.2-2.97,3.31-3.77,6.1-.8-2.8-2.06-4.9-3.77-6.1-1.81-1.27-4.04-1.49-6.47-.62-3.5,1.25-5.3,4.14-4.71,7.55,.4,2.3,1.94,4.62,4.22,6.22h-3.07c-2.96,0-5.17,2.13-6.04,5.83l-1.37,5.38c-3.21,.37-5.63,2.99-5.63,6.26v7.35c0,1.67,1.36,3.04,3.04,3.04h3.63c1.2,2.18,3.49,3.68,6.15,3.68,2.66,0,4.95-1.5,6.15-3.68h18.06c1.2,2.18,3.49,3.68,6.15,3.68,2.66,0,4.95-1.5,6.15-3.68h3.63c1.67,0,3.04-1.36,3.04-3.04v-5.58c0-4.45-3.62-8.07-8.07-8.07Zm-15.66-6.02h1.86c.81,0,1.52,.58,1.7,1.37l1.01,4.65h-4.57v-6.02Zm-.5-16.65c1.27-.89,2.83-1.02,4.65-.37,2.59,.93,3.84,2.87,3.41,5.32-.56,3.22-3.91,6.55-8.55,6.56h-3.01c1.06-2.99,2.52-5.09,4.29-6,1.83-.95,3.38-.42,3.43-.4,.52,.19,1.09-.07,1.28-.59,.19-.52-.08-1.09-.59-1.28-.1-.04-2.37-.84-4.98,.47-1.27,.64-2.38,1.71-3.33,3.09,.62-3.24,1.8-5.66,3.41-6.79Zm-17.9,4.95c-.43-2.46,.82-4.39,3.41-5.32,1.81-.65,3.38-.52,4.65,.37,1.61,1.13,2.78,3.55,3.41,6.79-.96-1.39-2.06-2.45-3.34-3.1-2.61-1.32-4.89-.51-4.98-.48-.52,.19-.78,.76-.59,1.27s.75,.79,1.27,.61c.06-.02,1.61-.54,3.44,.4,1.78,.92,3.23,3.02,4.29,6h-3.01c-4.64,0-7.99-3.34-8.55-6.56Zm7.56,17.72h-9.14l1.01-4.65c.17-.79,.89-1.37,1.7-1.37h6.44v6.02Zm-15.01,2c.46,0,.86-.31,.97-.75l1.56-6.11c.38-1.61,1.42-4.31,4.1-4.31h8.38v1.14h-6.44c-1.75,0-3.28,1.24-3.65,2.94l-1.27,5.87c-.06,.3,0,.6,.2,.84s.48,.37,.78,.37h10.38v7.87h-2.51c-1.21-2.13-3.48-3.59-6.1-3.59h0c-2.62,0-4.89,1.46-6.1,3.59H6v-3.56c0-2.41,1.94-4.31,4.42-4.31Zm-3.38,12.7c-.57,0-1.04-.47-1.04-1.04v-1.79h3.93c-.1,.47-.16,.96-.16,1.46,0,.47,.05,.93,.14,1.37h-2.87Zm9.78,3.68c-2.78,0-5.05-2.27-5.05-5.05s2.27-5.05,5.05-5.05,5.05,2.26,5.05,5.05-2.26,5.05-5.05,5.05Zm6.89-6.51h1.72v2.83h-1.7c.09-.44,.14-.9,.14-1.37,0-.5-.06-.99-.16-1.46Zm3.72,2.83V25.37h6.84v2.14h0v21.72h-6.84Zm8.84,0v-2.83h4.03c-.1,.47-.16,.96-.16,1.46,0,.47,.05,.93,.14,1.37h-4.01Zm10.92,3.68c-2.78,0-5.05-2.26-5.05-5.05s2.26-5.05,5.05-5.05c2.78,0,5.05,2.27,5.05,5.05s-2.26,5.05-5.05,5.05Zm9.78-3.68h-2.87c.09-.44,.14-.9,.14-1.37,0-.5-.06-.99-.16-1.46h3.93v1.79c0,.57-.47,1.04-1.04,1.04Zm1.04-4.83h-4.72c-1.21-2.13-3.48-3.59-6.1-3.59h0c-2.62,0-4.89,1.46-6.1,3.59h-4.82v-7.87h5.81c.3,0,.59-.14,.78-.37,.19-.24,.26-.54,.2-.84l-1.27-5.87c-.37-1.71-1.91-2.94-3.65-2.94h-1.86v-1.14h2.92c3.7,0,4.93,3.83,5.29,5.48l1.07,4.9c.1,.46,.51,.79,.98,.79h5.41c3.35,0,6.07,2.72,6.07,6.07v1.79Z"/>
<path d="M47.18,44.41h0c-1.91,0-3.46,1.55-3.46,3.46s1.55,3.46,3.46,3.46,3.46-1.55,3.46-3.46-1.55-3.46-3.46-3.46Zm0,4.92c-.79,0-1.46-.67-1.46-1.46s.67-1.46,1.46-1.46,1.46,.67,1.46,1.46-.67,1.46-1.46,1.46Z"/>
<path d="M16.82,44.41c-1.91,0-3.46,1.55-3.46,3.46s1.55,3.46,3.46,3.46,3.46-1.55,3.46-3.46-1.55-3.46-3.46-3.46Zm0,4.92c-.79,0-1.46-.67-1.46-1.46s.67-1.46,1.46-1.46,1.46,.67,1.46,1.46-.67,1.46-1.46,1.46Z"/>
<path d="M30.85,30.66c-.27,0-.52,.1-.71,.29-.19,.19-.29,.44-.29,.71s.1,.52,.29,.71c.19,.19,.44,.29,.71,.29s.52-.11,.71-.29c.19-.19,.29-.44,.29-.71s-.11-.52-.29-.71c-.19-.19-.44-.29-.71-.29Z"/>
<path d="M30.85,45.1c-.27,0-.52,.11-.71,.29-.19,.19-.29,.44-.29,.71s.1,.52,.29,.71,.44,.29,.71,.29,.52-.1,.71-.29c.19-.19,.29-.44,.29-.71s-.11-.52-.29-.71c-.19-.19-.44-.29-.71-.29Z"/>
<path d="M30.85,34.27c-.27,0-.52,.11-.71,.29s-.29,.44-.29,.71,.1,.52,.29,.71c.19,.19,.44,.29,.71,.29s.52-.11,.71-.29c.19-.19,.29-.44,.29-.71s-.11-.52-.29-.71c-.19-.19-.44-.29-.71-.29Z"/>
<path d="M30.85,41.49c-.27,0-.52,.11-.71,.29s-.29,.44-.29,.71,.1,.52,.29,.71,.44,.29,.71,.29,.52-.1,.71-.29c.19-.19,.29-.44,.29-.71s-.11-.52-.29-.71c-.19-.19-.44-.29-.71-.29Z"/>
</g>
<g id="n"/>
<g id="o"/>
<g id="p"/>
<g id="q"/>
<g id="r"/>
<g id="s"/>
<g id="t"/>
<g id="u"/>
<g id="v"/>
<g id="w"/>
<g id="x"/>
<g id="y"/>
<g id="a`"/>
<g id="aa"/>
<g id="ab"/>
<g id="ac"/>
<g id="ad"/>
<g id="ae"/>
<g id="af"/>
<g id="ag"/>
<g id="ah"/>
<g id="ai"/>
<g id="aj"/>
<g id="ak"/>
<g id="al"/>
<g id="am"/>
<g id="an"/>
<g id="ao"/>
<g id="ap"/>
<g id="aq"/>
<g id="ar"/>
<g id="as"/>
<g id="at"/>
<g id="au"/>
<g id="av"/>
<g id="aw"/>
<g id="ax"/>
</svg>